<svg width="145" height="44" viewBox="0 0 145 44" fill="none" xmlns="http://www.w3.org/2000/svg">
<path fill-rule="evenodd" clip-rule="evenodd" d="M143.359 32.6C143.359 37.5304 139.362 41.5278 134.432 41.5278H128.202V26.6824H130.175C133.443 26.6824 136.092 29.3317 136.092 32.6H137.13V26.6824V25.6447V19.7272H136.092C136.092 22.9955 133.443 25.6447 130.175 25.6447H128.202V12.4606H133.393C138.094 12.4606 141.906 16.2713 141.906 20.9733H142.943V11.422H141.906H128.202H123.012H117.821V12.4606H123.012V41.5278H117.821V42.5664H123.012H128.202H143.359H144.396V41.5278V32.6H143.359Z" fill="#FF6E00"/>
<path fill-rule="evenodd" clip-rule="evenodd" d="M129.16 3.91278L134.377 8.30517H134.855L131.811 1.14061C131.517 0.449093 130.837 0 130.086 0C129.051 0 128.211 0.838889 128.211 1.87398C128.211 2.65968 128.559 3.40613 129.16 3.91278Z" fill="#FF6E00"/>
<path fill-rule="evenodd" clip-rule="evenodd" d="M25.9532 11.422L23.7566 16.6132L16.0226 34.8926L14.5332 31.6652L7.58662 16.6132L5.1903 11.422H2.07629H0V12.1135V16.6132V42.5655H2.07629V16.6132L5.1903 23.36L13.3882 41.1214L14.0544 42.5655L14.5332 43.6041L14.9727 42.5655L17.1693 37.3752L25.9532 16.6132V42.5655H31.1435V16.6132V11.422H28.1499H25.9532Z" fill="#FF6E00"/>
<path fill-rule="evenodd" clip-rule="evenodd" d="M95.768 9.96161L95.7323 9.9494C95.5588 9.89185 95.339 9.86045 94.6771 9.86045C92.8162 9.86045 93.7746 9.77325 89.2104 10.1238C84.2957 10.4866 82.3615 10.7368 81.5113 10.92C81.4939 10.9078 81.4755 10.8947 81.4555 10.8799C80.9654 10.5284 80.4169 10.3959 79.8632 10.4962C79.1725 10.627 78.6197 11.0011 78.2665 11.5801C78.2124 11.6673 78.1706 11.7301 78.1392 11.7737C75.7699 12.4556 73.6221 12.8384 71.7542 12.9125L71.7411 12.9134C69.4024 13.0372 68.8835 13.2736 68.5809 13.4855L68.5547 13.5055C67.5798 14.2406 67.374 15.1153 67.374 15.7187C67.374 17.052 68.1179 18.0688 69.4669 18.5816L69.5018 18.5938C69.6866 18.6566 69.9038 18.6845 70.2064 18.6845C70.754 18.6845 72.1074 18.5598 77.4259 17.5325C77.4381 19.2766 77.3814 22.347 77.2549 23.5983C77.1172 24.9718 77.064 28.0448 77.091 32.9909C77.1041 35.6401 77.1512 38.721 77.2305 40.1014C77.35 42.1516 77.5035 42.7315 78.0206 43.062C78.5813 43.4143 79.149 43.5895 79.7001 43.5895C80.3271 43.5895 80.9331 43.3637 81.4843 42.912L81.493 42.905C82.3336 42.2004 82.7818 41.2386 82.7923 40.1232C82.8263 39.627 82.7321 39.1736 82.5133 38.7751L82.4958 38.7472C82.4601 38.6861 82.2778 38.3138 82.2769 36.9839C82.331 34.3722 82.3563 31.8704 82.3563 31.471V31.444C82.2804 28.711 82.515 22.5388 83.0522 16.1617C85.2296 15.4754 85.316 15.4998 88.6044 15.2391L92.4857 14.7778C92.7133 15.9036 93.4458 16.0318 93.765 16.0318C94.426 16.0318 95.2265 15.751 96.2843 15.1475C97.2287 14.6095 98.1033 13.9895 98.1033 13.1053C98.1033 11.642 97.274 10.5249 95.768 9.96161Z" fill="#FF6E00"/>
<path fill-rule="evenodd" clip-rule="evenodd" d="M104.856 42.5655H110.047V11.422H104.856V42.5655Z" fill="#FF6E00"/>
<path fill-rule="evenodd" clip-rule="evenodd" d="M53.7578 30.1071H51.6815H46.3709L51.0406 18.5502L51.6815 20.1372L53.7578 25.2761L55.7094 30.1071H53.7578ZM64.8604 38.9107L62.1431 32.1857L61.3043 30.1094L53.8362 11.6242L53.7551 11.4227L53.7543 11.4219V11.4227H51.678L49.9174 15.7811L44.128 30.1094L43.2891 32.1857L40.7 38.5933L36.3486 42.5671H45.4848L42.9403 38.5933L45.5284 32.1857H51.678H53.7543H56.5447L58.9751 38.2L59.262 38.9107L56.6965 42.5671H68.9458L64.8604 38.9107Z" fill="#FF6E00"/>
</svg>
