<svg width="77" height="24" viewBox="0 0 77 24" fill="none" xmlns="http://www.w3.org/2000/svg">
<path fill-rule="evenodd" clip-rule="evenodd" d="M76.4371 17.3793C76.4371 20.008 74.3063 22.1392 71.6776 22.1392H68.3561V14.2242H69.4082C71.1503 14.2242 72.5628 15.6367 72.5628 17.3793H73.1161V14.2242V13.6709V10.5159H72.5628C72.5628 12.2585 71.1503 13.6709 69.4082 13.6709H68.3561V6.64163H71.1238C73.6303 6.64163 75.6625 8.67338 75.6625 11.1803H76.2158V6.08789H75.6625H68.3561H65.5888H62.8215V6.64163H65.5888V22.1392H62.8215V22.693H65.5888H68.3561H76.4371H76.9904V22.1392V17.3793H76.4371Z" fill="white"/>
<path fill-rule="evenodd" clip-rule="evenodd" d="M68.862 2.08616L71.6437 4.42802H71.8985L70.2754 0.608133C70.1188 0.239441 69.7566 0 69.3558 0C68.8039 0 68.3562 0.447266 68.3562 0.999141C68.3562 1.41805 68.5417 1.81603 68.862 2.08616Z" fill="white"/>
<path fill-rule="evenodd" clip-rule="evenodd" d="M13.8373 6.08838L12.6662 8.85613L8.54268 18.6021L7.74858 16.8813L4.04492 8.85613L2.76728 6.08838H1.10701H0V6.45707V8.85613V22.693H1.10701V8.85613L2.76728 12.4533L7.13812 21.9231L7.49333 22.693L7.74858 23.2467L7.9829 22.693L9.15407 19.9257L13.8373 8.85613V22.693H16.6046V8.85613V6.08838H15.0085H13.8373Z" fill="white"/>
<path fill-rule="evenodd" clip-rule="evenodd" d="M51.0603 5.31688L51.0413 5.31037C50.9487 5.27968 50.8316 5.26294 50.4787 5.26294C49.4865 5.26294 49.9975 5.21645 47.564 5.40335C44.9437 5.59677 43.9124 5.7302 43.4591 5.82784C43.4498 5.82133 43.4401 5.81435 43.4294 5.80645C43.1681 5.61908 42.8756 5.54841 42.5804 5.60188C42.2122 5.67162 41.9174 5.87108 41.7291 6.17979C41.7003 6.22629 41.678 6.25976 41.6612 6.28301C40.398 6.64659 39.2529 6.85069 38.257 6.89021L38.25 6.89068C37.0031 6.9567 36.7264 7.08269 36.5651 7.19567L36.5512 7.20636C36.0314 7.5983 35.9216 8.06463 35.9216 8.38636C35.9216 9.09725 36.3182 9.63936 37.0375 9.91274L37.0561 9.91925C37.1546 9.95272 37.2704 9.9676 37.4317 9.9676C37.7237 9.9676 38.4453 9.90112 41.2809 9.35343C41.2874 10.2833 41.2572 11.9203 41.1898 12.5875C41.1163 13.3198 41.088 14.9582 41.1024 17.5953C41.1094 19.0078 41.1345 20.6504 41.1768 21.3864C41.2405 22.4794 41.3223 22.7886 41.598 22.9648C41.897 23.1526 42.1996 23.2461 42.4935 23.2461C42.8277 23.2461 43.1509 23.1257 43.4447 22.8848L43.4494 22.8811C43.8976 22.5055 44.1365 21.9926 44.1421 21.398C44.1602 21.1334 44.11 20.8917 43.9933 20.6792L43.984 20.6643C43.965 20.6318 43.8678 20.4332 43.8673 19.7242C43.8962 18.3318 43.9096 16.9979 43.9096 16.7849V16.7705C43.8692 15.3134 43.9943 12.0226 44.2807 8.62255C45.4416 8.25665 45.4876 8.26967 47.2409 8.13065L49.3103 7.8847C49.4317 8.48493 49.8222 8.55328 49.9924 8.55328C50.3448 8.55328 50.7716 8.40357 51.3356 8.08183C51.8391 7.79497 52.3054 7.4644 52.3054 6.99296C52.3054 6.2128 51.8633 5.61722 51.0603 5.31688Z" fill="white"/>
<path fill-rule="evenodd" clip-rule="evenodd" d="M55.9028 22.693H58.6701V6.08838H55.9028V22.693Z" fill="white"/>
<path fill-rule="evenodd" clip-rule="evenodd" d="M28.6521 16.0508H27.5451H24.7137L27.2034 9.88903L27.5451 10.7352L28.6521 13.4751L29.6926 16.0508H28.6521ZM34.5733 20.7435L33.1245 17.1579L32.6773 16.0509L28.6956 6.19527L28.6524 6.08787L28.6519 6.0874V6.08787H27.5449L26.6062 8.4116L23.5195 16.0509L23.0722 17.1579L21.6918 20.5743L19.3718 22.693H24.2429L22.8863 20.5743L24.2662 17.1579H27.5449H28.6519H30.1397L31.4354 20.3646L31.5884 20.7435L30.2206 22.693H36.7515L34.5733 20.7435Z" fill="white"/>
</svg>
