<svg width="80" height="24" viewBox="0 0 80 24" fill="none" xmlns="http://www.w3.org/2000/svg">
<path fill-rule="evenodd" clip-rule="evenodd" d="M78.9132 17.9423V17.9423C78.9132 20.6562 76.7133 22.8565 73.9994 22.8565H70.5703V14.6851H71.6566C73.4551 14.6851 74.9134 16.1433 74.9134 17.9423H75.4845V14.6851V14.1139V10.8566H74.9134C74.9134 12.6556 73.4551 14.1139 71.6566 14.1139H70.5703V6.85677H73.4278C76.0154 6.85677 78.1135 8.95436 78.1135 11.5425H78.6847V6.2851H78.1135H70.5703H67.7134H64.8564V6.85677H67.7134V22.8565H64.8564V23.4282H67.7134H70.5703H78.9132H79.4844V22.8565V17.9423H78.9132Z" fill="#929497"/>
<path fill-rule="evenodd" clip-rule="evenodd" d="M71.0925 2.15375L73.9644 4.5715H74.2274L72.5517 0.627837C72.39 0.247199 72.0161 0 71.6023 0C71.0326 0 70.5703 0.461758 70.5703 1.03151C70.5703 1.46399 70.7618 1.87487 71.0925 2.15375" fill="#929497"/>
<path fill-rule="evenodd" clip-rule="evenodd" d="M14.2857 6.28613L13.0766 9.14356L8.81947 19.2053L7.99964 17.4288L4.17598 9.14356L2.85694 6.28613H1.14287H0V6.66677V9.14356V23.4288H1.14287V9.14356L2.85694 12.8573L7.3694 22.6339L7.73612 23.4288L7.99964 24.0004L8.24156 23.4288L9.45067 20.5718L14.2857 9.14356V23.4288H17.1426V9.14356V6.28613H15.4948H14.2857Z" fill="#929497"/>
<path fill-rule="evenodd" clip-rule="evenodd" d="M52.7151 5.48969L52.6955 5.48297C52.5999 5.45129 52.479 5.43401 52.1147 5.43401C51.0903 5.43401 51.6179 5.38601 49.1056 5.57897C46.4003 5.77865 45.3357 5.91641 44.8677 6.01721C44.8581 6.01049 44.848 6.00329 44.8369 5.99513C44.5672 5.80169 44.2653 5.72873 43.9605 5.78393C43.5803 5.85593 43.276 6.06185 43.0816 6.38056C43.0518 6.42856 43.0288 6.46312 43.0115 6.48712C41.7074 6.86248 40.5251 7.0732 39.497 7.114L39.4898 7.11448C38.2024 7.18264 37.9168 7.31272 37.7503 7.42936L37.7359 7.4404C37.1992 7.84504 37.0859 8.32647 37.0859 8.65863C37.0859 9.39255 37.4954 9.95222 38.2379 10.2345L38.2571 10.2412C38.3589 10.2757 38.4784 10.2911 38.645 10.2911C38.9464 10.2911 39.6914 10.2225 42.6189 9.65703C42.6256 10.617 42.5944 12.3071 42.5248 12.9959C42.4489 13.7519 42.4197 15.4434 42.4345 18.1659C42.4417 19.6242 42.4677 21.32 42.5113 22.0798C42.5771 23.2083 42.6616 23.5275 42.9462 23.7094C43.2549 23.9034 43.5673 23.9998 43.8707 23.9998C44.2158 23.9998 44.5494 23.8755 44.8528 23.6269L44.8576 23.623C45.3203 23.2352 45.567 22.7058 45.5728 22.0918C45.5915 21.8187 45.5397 21.5691 45.4192 21.3498L45.4096 21.3344C45.3899 21.3008 45.2896 21.0958 45.2891 20.3638C45.3189 18.9263 45.3328 17.5491 45.3328 17.3293V17.3144C45.291 15.8101 45.4201 12.4127 45.7158 8.90247C46.9144 8.52471 46.9619 8.53815 48.772 8.39463L50.9084 8.14071C51.0337 8.76039 51.4369 8.83095 51.6126 8.83095C51.9764 8.83095 52.4171 8.67639 52.9993 8.34423C53.5191 8.04808 54.0006 7.7068 54.0006 7.22008C54.0006 6.41464 53.5441 5.79977 52.7151 5.48969" fill="#929497"/>
<path fill-rule="evenodd" clip-rule="evenodd" d="M57.7148 23.4285H60.5718V6.28589H57.7148V23.4285Z" fill="#929497"/>
<path fill-rule="evenodd" clip-rule="evenodd" d="M29.5807 16.5714H28.4378H25.5147L28.0851 10.21L28.4378 11.0836L29.5807 13.9122L30.655 16.5714H29.5807ZM35.694 21.4161L34.1983 17.7144L33.7366 16.5715L29.6259 6.39652L29.5812 6.28564L29.5807 6.28516V6.28564H28.4379V6.28564V6.28564L27.4688 8.68466L24.2821 16.5715L23.8203 17.7144L22.3952 21.2414L20 23.4287H25.0289L23.6283 21.2414L25.0529 17.7144H28.4379H29.5807H31.1167L32.4545 21.0249L32.6124 21.4161L31.2003 23.4287H37.9428L35.694 21.4161Z" fill="#929497"/>
</svg>
