<svg width="32" height="32" viewBox="0 0 32 32" fill="none" xmlns="http://www.w3.org/2000/svg">
<path fill-rule="evenodd" clip-rule="evenodd" d="M8.53236 18.2222H23.4676L25.3227 26.5703L24.455 26.7631L22.7546 19.1111H9.24541L7.54497 26.7631L6.67725 26.5703L8.53236 18.2222Z" fill="black"/>
<path fill-rule="evenodd" clip-rule="evenodd" d="M15.9998 15.1111C18.4544 15.1111 20.4443 13.1213 20.4443 10.6667C20.4443 8.21208 18.4544 6.22223 15.9998 6.22223C13.5452 6.22223 11.5554 8.21208 11.5554 10.6667C11.5554 13.1213 13.5452 15.1111 15.9998 15.1111ZM15.9998 16C18.9454 16 21.3332 13.6122 21.3332 10.6667C21.3332 7.72116 18.9454 5.33334 15.9998 5.33334C13.0543 5.33334 10.6665 7.72116 10.6665 10.6667C10.6665 13.6122 13.0543 16 15.9998 16Z" fill="black"/>
</svg>
