<svg width="36" height="36" viewBox="0 0 36 36" fill="none" xmlns="http://www.w3.org/2000/svg">
<path fill-rule="evenodd" clip-rule="evenodd" d="M19.3984 10.0187C22.7055 10.6462 25.2 13.4563 25.2 16.8281V23.2723L26.5301 26.0006L27 26.9646H25.8951H20.2499C20.0336 28.0027 19.129 28.8126 17.9992 28.8126C16.8694 28.8126 15.9648 28.0027 15.7485 26.9646H10.1049H9L9.46992 26.0006L10.8 23.2723V16.8281C10.8 13.4574 13.2929 10.6479 16.5984 10.0193V8.96264C16.5984 8.21528 17.1965 7.55762 17.9984 7.55762C18.8004 7.55762 19.3984 8.21528 19.3984 8.96264V10.0187ZM18.3984 9.89832V8.96264C18.3984 8.69041 18.1906 8.52153 17.9984 8.52153C17.8063 8.52153 17.5984 8.69041 17.5984 8.96264V9.89848C17.7314 9.89144 17.8652 9.88787 18 9.88787C18.1337 9.88787 18.2665 9.89138 18.3984 9.89832ZM24.2 23.4875V23.2723V16.8281C24.2 13.5275 21.4242 10.8518 18 10.8518C14.5758 10.8518 11.8 13.5275 11.8 16.8281V23.2723V23.4875L11.7051 23.6823L10.5748 26.0006H25.4252L24.2949 23.6823L24.2 23.4875ZM17.9992 27.8486C17.4603 27.8486 16.9696 27.493 16.781 26.9646H19.2175C19.0289 27.493 18.5381 27.8486 17.9992 27.8486Z" fill="white"/>
</svg>
