<svg width="22" height="22" viewBox="0 0 22 22" fill="none" xmlns="http://www.w3.org/2000/svg">
<path fill-rule="evenodd" clip-rule="evenodd" d="M15.2653 1.79592C16.5752 1.79592 17.8313 2.31625 18.7575 3.24245C19.6837 4.16865 20.2041 5.42485 20.2041 6.73469V15.2653C20.2041 16.5752 19.6837 17.8313 18.7575 18.7575C17.8313 19.6837 16.5752 20.2041 15.2653 20.2041H6.73469C5.42485 20.2041 4.16865 19.6837 3.24245 18.7575C2.31625 17.8313 1.79592 16.5752 1.79592 15.2653V6.73469C1.79592 5.42485 2.31625 4.16865 3.24245 3.24245C4.16865 2.31625 5.42485 1.79592 6.73469 1.79592H15.2653ZM15.2653 0H6.73469C4.95018 0.00532959 3.24028 0.716587 1.97843 1.97843C0.716587 3.24028 0.00532959 4.95018 0 6.73469V15.2653C0.00532959 17.0498 0.716587 18.7597 1.97843 20.0216C3.24028 21.2834 4.95018 21.9947 6.73469 22H15.2653C17.0498 21.9947 18.7597 21.2834 20.0216 20.0216C21.2834 18.7597 21.9947 17.0498 22 15.2653V6.73469C21.9947 4.95018 21.2834 3.24028 20.0216 1.97843C18.7597 0.716587 17.0498 0.00532959 15.2653 0ZM16.8682 3.81641C16.6137 3.81641 16.365 3.89185 16.1535 4.03319C15.942 4.17453 15.7771 4.37543 15.6797 4.61048C15.5824 4.84552 15.5569 5.10416 15.6066 5.35368C15.6562 5.60321 15.7787 5.83241 15.9586 6.0123C16.1385 6.1922 16.3677 6.31471 16.6172 6.36434C16.8667 6.41398 17.1254 6.3885 17.3604 6.29114C17.5955 6.19378 17.7964 6.02891 17.9377 5.81738C18.079 5.60584 18.1545 5.35714 18.1545 5.10273C18.1545 4.93381 18.1212 4.76654 18.0566 4.61048C17.9919 4.45441 17.8972 4.31261 17.7777 4.19316C17.6583 4.07372 17.5165 3.97897 17.3604 3.91432C17.2044 3.84968 17.0371 3.81641 16.8682 3.81641ZM13.2665 7.7327C12.6135 7.29675 11.8458 7.06429 11.0606 7.06474C10.0091 7.06652 9.00119 7.48501 8.25767 8.22853C7.51415 8.97206 7.09565 9.97998 7.09387 11.0315C7.09343 11.8167 7.32588 12.5843 7.76183 13.2374C8.19778 13.8904 8.81763 14.3995 9.54295 14.7001C10.2683 15.0008 11.0665 15.0796 11.8366 14.9265C12.6067 14.7735 13.3141 14.3954 13.8693 13.8402C14.4246 13.285 14.8026 12.5776 14.9557 11.8075C15.1088 11.0374 15.03 10.2391 14.7293 9.51382C14.4286 8.78849 13.9195 8.16864 13.2665 7.7327ZM7.86063 6.24599C8.80724 5.61109 9.9208 5.27104 11.0606 5.26882C11.8184 5.26734 12.5691 5.41529 13.2697 5.70421C13.9702 5.99312 14.607 6.41732 15.1435 6.95255C15.68 7.48778 16.1056 8.12353 16.3962 8.82344C16.6867 9.52334 16.8364 10.2737 16.8367 11.0315C16.8372 12.1713 16.4997 13.2856 15.867 14.2337C15.2343 15.1818 14.3348 15.9211 13.2821 16.3581C12.2294 16.7951 11.0708 16.9102 9.95265 16.6889C8.83453 16.4676 7.8071 15.9199 7.0002 15.1149C6.19329 14.3098 5.64313 13.2837 5.41924 12.1661C5.19536 11.0485 5.30779 9.88959 5.74233 8.83587C6.17688 7.78215 6.91403 6.88089 7.86063 6.24599Z" fill="#AEB2BB"/>
</svg>
