<svg width="25" height="17" viewBox="0 0 25 17" fill="none" xmlns="http://www.w3.org/2000/svg">
<path fill-rule="evenodd" clip-rule="evenodd" d="M20.6661 1.68621C17.3337 1.44596 12.2862 1.44596 12.235 1.44596V1.46153H12.2283C12.1794 1.46153 7.13635 1.46375 3.79953 1.70178L3.65271 1.71513L3.6428 1.71609C3.21145 1.7581 2.72371 1.80559 2.25569 2.28906C2.03769 2.50707 1.77964 3.29456 1.69288 3.86182C1.55259 5.09604 1.47833 6.33689 1.47043 7.57904V9.39427C1.478 10.6364 1.55226 11.8773 1.69288 13.1115C1.77741 13.6721 2.03101 14.4573 2.25347 14.6798C2.66723 15.1091 3.24339 15.1781 3.75059 15.2382C3.87961 15.2515 3.98862 15.2671 4.10207 15.2849C6.00851 15.4473 11.9814 15.5073 12.2372 15.5073C12.4597 15.5073 17.3915 15.4851 20.6661 15.2626L20.8173 15.2471L20.8208 15.2467C21.2538 15.2045 21.744 15.1568 22.2121 14.6731C22.4301 14.464 22.6904 13.6654 22.7727 13.1159C22.9131 11.881 22.9873 10.6394 22.9952 9.39649V7.56347C22.9876 6.3213 22.9133 5.08044 22.7727 3.84624C22.6859 3.28343 22.4323 2.49594 22.2099 2.27349C21.7383 1.78631 21.2578 1.7396 20.8129 1.69956L20.6661 1.68621ZM3.67495 0.260272C7.09854 0.0155714 12.235 0.0155718 12.235 0.0155718V0C12.235 0 17.3759 0 20.8062 0.246925C20.8506 0.251923 20.8999 0.256512 20.9537 0.261513C21.4744 0.309929 22.4104 0.396961 23.2532 1.26799C23.9873 2.00209 24.2253 3.66828 24.2253 3.66828C24.3777 4.96721 24.4594 6.27346 24.47 7.58126V9.41429C24.4579 10.7222 24.3748 12.0284 24.2209 13.3273C24.2209 13.3273 23.9806 14.9935 23.2488 15.7253C22.4125 16.5938 21.4799 16.6829 20.9551 16.733C20.8991 16.7384 20.8478 16.7433 20.8018 16.7486C17.376 17 12.235 17 12.235 17C12.235 17 5.87281 16.9422 3.91521 16.7575C3.82149 16.7399 3.70777 16.7262 3.57897 16.7107C2.95873 16.6359 1.98864 16.5189 1.21683 15.7231C0.482727 14.9912 0.2447 13.325 0.2447 13.325C0.0922743 12.0261 0.0105868 10.7199 0 9.41206V7.57904C0.014868 6.27624 0.100267 4.97519 0.255823 3.68163C0.255823 3.68163 0.496074 2.01544 1.22795 1.28134C2.06507 0.414108 2.99458 0.325862 3.5195 0.276027C3.57626 0.270638 3.62828 0.265699 3.67495 0.260272ZM16.2659 8.49996L10.0394 12.146V4.85393L16.2659 8.49996Z" fill="#AEB2BB"/>
</svg>
